<svg width="17" height="12" viewBox="0 0 17 12" fill="none" xmlns="http://www.w3.org/2000/svg">
<g clip-path="url(#clip0)">
<g filter="url(#filter0_d)">
<path d="M6 2H4V3H6V2Z" fill="white"/>
<path d="M8.98921 1.00857H6.01137V2.00118H8.98921V1.00857Z" fill="white"/>
<path d="M6 1H4V2H6V1Z" fill="black"/>
<path d="M4 2H3V3H4V2Z" fill="black"/>
<path d="M3 9H2V10H3V9Z" fill="black"/>
<path d="M5 9H3V10H5V9Z" fill="#A009B9"/>
<path d="M10 10H9V11H10V10Z" fill="#A009B9"/>
<path d="M8 8H5V11H8V8Z" fill="#A009B9"/>
<path d="M8.98922 9.00266H8V11H8.98922V9.00266Z" fill="#A009B9"/>
<path d="M5 10H3V11H5V10Z" fill="black"/>
<path d="M10 11H5V12H10V11Z" fill="black"/>
<path d="M9 0H6V1H9V0Z" fill="black"/>
<path d="M2 4H1V5H2V4Z" fill="black"/>
<path d="M3 3H2V4H3V3Z" fill="black"/>
<rect x="7" y="6" width="3" height="1" fill="#FA00FF"/>
<rect x="6" y="1" width="3" height="1" fill="#FA00FF"/>
<rect x="4" y="2" width="4" height="1" fill="#FA00FF"/>
<rect x="3" y="3" width="5" height="1" fill="#FA00FF"/>
<rect x="2" y="4" width="6" height="1" fill="#FA00FF"/>
<rect x="6" y="5" width="3" height="1" fill="#FA00FF"/>
<rect x="7" y="7" width="2" height="1" fill="#FA00FF"/>
</g>
<path d="M15 3H14V6H15V3Z" fill="black"/>
<path d="M9.99956 5.49306V4.99675H9.50325H9.00694V3.49897V2.00118H9.50325H9.99956V1.50487V1.00857H10.9922H11.9848V1.50487V2.00118H12.49H12.9951V2.49749V2.9938H12.4898H11.9845L11.9891 3.99971L11.9937 5.00561L12.5033 5.01031L13.0129 5.01501V4.01327V3.01152H13.5003H13.9878V4.50044V5.98937H11.9936H9.99956V5.49306Z" fill="white"/>
<path d="M13 3H12V5H13V3Z" fill="black"/>
<path d="M14 2H13V3H14V2Z" fill="black"/>
<path d="M13 1H12V2H13V1Z" fill="black"/>
<path d="M10 5H9V6H10V5Z" fill="black"/>
<path d="M9 2H8V5H9V2Z" fill="black"/>
<path d="M10 1H9V2H10V1Z" fill="black"/>
<path d="M12 0H9V1H12V0Z" fill="black"/>
<rect x="9" y="4" width="1" height="1" fill="#E5E5E5"/>
<rect x="9" y="3" width="1" height="1" fill="#E5E5E5"/>
<rect x="10" y="5" width="1" height="1" fill="#E5E5E5"/>
<path d="M16 6H10V7H16V6Z" fill="black"/>
<path d="M9.00694 8.49749V8.01004H9.50325H9.99956V8.49749V8.98493H9.50325H9.00694V8.49749Z" fill="#FF6600"/>
<path d="M16 8H10V9H16V8Z" fill="black"/>
<path d="M17 7H16V8H17V7Z" fill="black"/>
<path d="M16 9H15V10H16V9Z" fill="black"/>
<path d="M9.99956 7.49601V6.9997H12.9951H15.9907V7.49601V7.99232H12.9951H9.99956V7.49601Z" fill="#FF2A2A"/>
<path d="M9.99956 9.49896V9.00266H12.4988H14.9981V9.49896V9.99527H12.4988H9.99956V9.49896Z" fill="#FF2A2A"/>
<path d="M15 10H10V11H15V10Z" fill="black"/>
<path d="M9.99956 7.49601V6.9997H12.9951H15.9907V7.49601V7.99232H12.9951H9.99956V7.49601Z" fill="#FF6600"/>
<path d="M9.99956 9.49896V9.00266H12.4988H14.9981V9.49896V9.99527H12.4988H9.99956V9.49896Z" fill="#FF6600"/>
<path d="M10 7H9V8H10V7Z" fill="black"/>
<path d="M9 8H8V9H9V8Z" fill="black"/>
<path d="M10 9H9V10H10V9Z" fill="black"/>
<path d="M2 8H1V9H2V8Z" fill="black"/>
<path d="M6 6H4V5H6V6Z" fill="black"/>
<path d="M4 6H2V5H4V6Z" fill="black"/>
<path d="M6 6H1V8H6V6Z" fill="white"/>
<path d="M6 8H5V9H6V8Z" fill="black"/>
<path d="M1 5H2V6H1V5Z" fill="black"/>
<path d="M1 6H0V8H1V6Z" fill="black"/>
<path d="M7 6H6V8H7V6Z" fill="black"/>
<path d="M5 8H3V9H5V8Z" fill="black"/>
<path d="M3 8H2V9H3V8Z" fill="black"/>
<path d="M6 8H5V9H6V8Z" fill="black"/>
<path d="M2 7H1V8H2V7Z" fill="#F1F0F0"/>
<path d="M6 7H5V8H6V7Z" fill="#F1F0F0"/>
</g>
<defs>
<filter id="filter0_d" x="-3" y="0" width="17" height="20" filterUnits="userSpaceOnUse" color-interpolation-filters="sRGB">
<feFlood flood-opacity="0" result="BackgroundImageFix"/>
<feColorMatrix in="SourceAlpha" type="matrix" values="0 0 0 0 0 0 0 0 0 0 0 0 0 0 0 0 0 0 127 0" result="hardAlpha"/>
<feOffset dy="4"/>
<feGaussianBlur stdDeviation="2"/>
<feColorMatrix type="matrix" values="0 0 0 0 0 0 0 0 0 0 0 0 0 0 0 0 0 0 0.25 0"/>
<feBlend mode="normal" in2="BackgroundImageFix" result="effect1_dropShadow"/>
<feBlend mode="normal" in="SourceGraphic" in2="effect1_dropShadow" result="shape"/>
</filter>
<clipPath id="clip0">
<rect width="17" height="12" fill="white"/>
</clipPath>
</defs>
</svg>
