<?xml version="1.0" encoding="UTF-8" standalone="no"?>
<svg
   xmlns:dc="http://purl.org/dc/elements/1.1/"
   xmlns:cc="http://creativecommons.org/ns#"
   xmlns:rdf="http://www.w3.org/1999/02/22-rdf-syntax-ns#"
   xmlns:svg="http://www.w3.org/2000/svg"
   xmlns="http://www.w3.org/2000/svg"
   shape-rendering="crispEdges"
   viewBox="0 0 17 12"
   height="12"
   width="17"
   id="svg2"
   version="1.1">
  <metadata
     id="metadata8">
    <rdf:RDF>
      <cc:Work
         rdf:about="">
        <dc:format>image/svg+xml</dc:format>
        <dc:type
           rdf:resource="http://purl.org/dc/dcmitype/StillImage" />
        <dc:title></dc:title>
      </cc:Work>
    </rdf:RDF>
  </metadata>
  <defs
     id="defs6" />
  <rect
     y="11"
     x="5"
     height="1"
     width="5"
     id="rect99" />
  <rect
     y="10"
     x="3"
     height="1"
     width="2"
     id="rect101" />
  <rect
     y="8"
     x="2"
     height="2"
     width="1"
     id="rect103" />
  <rect
     y="7"
     x="1"
     height="1"
     width="1"
     id="rect105" />
  <rect
     y="6"
     x="0"
     height="1"
     width="1"
     id="rect107" />
  <rect
     y="4"
     x="0"
     height="2"
     width="1"
     id="rect109" />
  <rect
     y="3"
     x="1"
     height="1"
     width="4"
     id="rect111" />
  <rect
     y="2"
     x="3"
     height="1"
     width="1"
     id="rect113" />
  <rect
     y="1"
     x="4"
     height="1"
     width="2"
     id="rect115" />
  <rect
     y="0"
     x="6"
     height="1"
     width="6"
     id="rect117" />
  <rect
     y="1"
     x="12"
     height="1"
     width="1"
     id="rect119" />
  <rect
     y="2"
     x="13"
     height="1"
     width="1"
     id="rect121" />
  <rect
     y="3"
     x="14"
     height="4"
     width="1"
     id="rect123" />
  <rect
     y="6"
     x="10"
     height="1"
     width="6"
     id="rect125" />
  <rect
     y="7"
     x="16"
     height="1"
     width="1"
     id="rect127" />
  <rect
     y="9"
     x="15"
     height="1"
     width="1"
     id="rect131" />
  <rect
     y="8"
     x="10"
     height="1"
     width="6"
     id="rect133" />
  <rect
     y="10"
     x="10"
     height="1"
     width="5"
     id="rect135" />
  <rect
     y="7"
     x="9"
     height="1"
     width="1"
     id="rect137" />
  <rect
     y="8"
     x="8"
     height="1"
     width="1"
     id="rect139" />
  <rect
     y="9"
     x="9"
     height="1"
     width="1"
     id="rect141" />
  <rect
     y="3"
     x="12"
     height="2"
     width="1"
     id="rect143" />
  <rect
     y="1"
     x="9"
     height="1"
     width="1"
     id="rect145" />
  <rect
     y="2"
     x="8"
     height="3"
     width="1"
     id="rect147" />
  <rect
     y="5"
     x="9"
     height="1"
     width="1"
     id="rect149" />
  <rect
     y="4"
     x="5"
     height="1"
     width="1"
     id="rect151" />
  <rect
     y="5"
     x="6"
     height="2"
     width="1"
     id="rect153" />
  <rect
     y="7"
     x="5"
     height="1"
     width="1"
     id="rect157" />
  <rect
     y="8"
     x="3"
     height="1"
     width="2"
     id="rect159" />
  <path
     id="path163"
     d="M 9.9995569,5.4930576 V 4.9967504 H 9.5032496 9.0069424 V 3.498966 2.0011817 H 9.5032496 9.9995569 V 1.5048744 1.0085672 h 0.9926141 0.992615 v 0.4963072 0.4963073 h 0.50517 0.50517 v 0.4963072 0.4963073 h -0.505317 -0.505316 l 0.0046,1.0059084 0.0046,1.0059084 0.509602,0.0047 0.509601,0.0047 V 4.0132704 3.0115214 h 0.487444 0.487445 V 4.5004431 5.9893648 H 11.993648 9.9995569 Z"
     style="fill:#ffffff;stroke-width:0.01772526" />
  <path
     id="path165"
     d="M 5.001034,10.491581 V 9.9952733 H 4.0084195 3.015805 V 9.498966 9.0026588 H 4.0084195 5.001034 V 8.5063516 8.0100443 H 5.5062038 6.0113737 V 7.5048744 6.9997046 H 6.5076809 7.0039882 V 5.9982275 4.9967504 H 6.5076809 6.0113737 V 4.4915805 3.9864106 H 5.5062038 5.001034 V 3.4901034 2.9937962 H 4.5047267 4.0084195 V 2.4974889 2.0011817 H 5.0098966 6.0113737 V 1.5048744 1.0085672 H 7.5002954 8.9892171 V 1.4960118 1.9834564 H 8.4929099 7.9966027 V 3.498966 5.0144756 H 8.4929099 8.9892171 V 5.5107829 6.0070901 H 9.494387 9.9995569 V 6.5033973 6.9997046 H 9.494387 8.9892171 V 7.4960118 7.9923191 H 8.4929099 7.9966027 V 8.4974889 9.0026588 H 8.4929099 8.9892171 V 9.5078287 10.012999 H 9.494387 9.9995569 v 0.487444 0.487445 H 7.5002954 5.001034 Z"
     style="fill:#ffff00;stroke-width:0.01772526" />
  <path
     id="path167"
     d="M 5.001034,10.491581 V 9.9952733 H 4.0084195 3.015805 V 9.498966 9.0026588 H 4.0084195 5.001034 V 8.5063516 8.0100443 H 5.5062038 6.0113737 V 7.5048744 6.9997046 H 6.5076809 7.0039882 V 5.9982275 4.9967504 H 6.5076809 6.0113737 V 4.4915805 3.9864106 H 5.5062038 5.001034 V 3.4901034 2.9937962 H 4.5047267 4.0084195 V 2.4974889 2.0011817 H 5.0098966 6.0113737 V 1.5048744 1.0085672 H 7.5002954 8.9892171 V 1.4960118 1.9834564 H 8.4929099 7.9966027 V 3.498966 5.0144756 H 8.4929099 8.9892171 V 5.5107829 6.0070901 H 9.494387 9.9995569 V 6.5033973 6.9997046 H 9.494387 8.9892171 V 7.4960118 7.9923191 H 8.4929099 7.9966027 V 8.4974889 9.0026588 H 8.4929099 8.9892171 V 9.5078287 10.012999 H 9.494387 9.9995569 v 0.487444 0.487445 H 7.5002954 5.001034 Z"
     style="fill:#ffff00;stroke-width:0.01772526" />
  <path
     id="path169"
     d="M 2.0054653,7.4960118 V 6.9997046 H 1.5091581 1.0128508 V 5.5019202 4.0041359 h 1.984953 1.9849528 l 0.00471,0.5007385 0.00471,0.5007386 0.5007386,0.00471 0.5007385,0.00471 V 6.0073661 6.9997046 H 5.4884786 4.9833087 V 7.4960118 7.9923191 H 3.494387 2.0054653 Z"
     style="fill:#ffff00;stroke-width:0.01772526" />
  <path
     id="path171"
     d="M 9.9995569,9.498966 V 9.0026588 H 12.498818 14.99808 V 9.498966 9.9952733 H 12.498818 9.9995569 Z"
     style="fill:#ff2a2a;stroke-width:0.01772526" />
  <path
     id="path173"
     d="M 9.9995569,7.4960118 V 6.9997046 h 2.9955691 2.995568 V 7.4960118 7.9923191 H 12.995126 9.9995569 Z"
     style="fill:#ff2a2a;stroke-width:0.01772526" />
  <path
     id="path175"
     d="M 9.0069424,8.4974889 V 8.0100443 H 9.5032496 9.9995569 V 8.4974889 8.9849335 H 9.5032496 9.0069424 Z"
     style="fill:#ff6600;stroke-width:0.01772526" />
  <path
     id="path177"
     d="M 9.9995569,7.4960118 V 6.9997046 h 2.9955691 2.995568 V 7.4960118 7.9923191 H 12.995126 9.9995569 Z"
     style="fill:#ff6600;stroke-width:0.01772526" />
  <path
     id="path179"
     d="M 9.9995569,9.498966 V 9.0026588 H 12.498818 14.99808 V 9.498966 9.9952733 H 12.498818 9.9995569 Z"
     style="fill:#ff6600;stroke-width:0.01772526" />
  <rect
     y="8"
     x="5"
     height="3"
     width="3"
     id="rect181"
     style="fill:#ff9955" />
  <rect
     y="9.0026588"
     x="8"
     height="1.9973412"
     width="0.9892171"
     id="rect183"
     style="fill:#ff9955" />
  <rect
     y="10"
     x="9"
     height="1"
     width="1"
     id="rect185"
     style="fill:#ff9955" />
  <rect
     y="9"
     x="3"
     height="1"
     width="2"
     id="rect187"
     style="fill:#ff9955" />
  <rect
     y="4"
     x="1"
     height="2"
     width="4"
     id="rect189"
     style="fill:#ffffff" />
  <rect
     y="5"
     x="5"
     height="1"
     width="1"
     id="rect191"
     style="fill:#ffffff" />
  <rect
     y="6"
     x="2"
     height="1"
     width="3"
     id="rect193"
     style="fill:#ffffff" />
  <rect
     y="1.0085672"
     x="6.0113735"
     height="0.99261451"
     width="2.9778433"
     id="rect195"
     style="fill:#ffffff" />
  <rect
     y="2"
     x="4"
     height="1"
     width="2"
     id="rect197"
     style="fill:#ffffff" />
</svg>
