<svg width="17" height="12" viewBox="0 0 17 12" fill="none" xmlns="http://www.w3.org/2000/svg">
<path d="M15 3H14V6H15V3Z" fill="black"/>
<path d="M9.99956 5.49306V4.99675H9.50325H9.00694V3.49897V2.00118H9.50325H9.99956V1.50487V1.00857H10.9922H11.9848V1.50487V2.00118H12.49H12.9951V2.49749V2.9938H12.4898H11.9845L11.9891 3.99971L11.9937 5.00561L12.5033 5.01031L13.0129 5.01501V4.01327V3.01152H13.5003H13.9878V4.50044V5.98937H11.9936H9.99956V5.49306Z" fill="white"/>
<path d="M13 3H12V5H13V3Z" fill="black"/>
<path d="M14 2H13V3H14V2Z" fill="black"/>
<path d="M13 1H12V2H13V1Z" fill="black"/>
<path d="M10 5H9V6H10V5Z" fill="black"/>
<path d="M9 2H8V5H9V2Z" fill="black"/>
<path d="M10 1H9V2H10V1Z" fill="black"/>
<path d="M12 0H9V1H12V0Z" fill="black"/>
<path d="M16 6H10V7H16V6Z" fill="black"/>
<path d="M9.00694 8.49749V8.01004H9.50325H9.99956V8.49749V8.98493H9.50325H9.00694V8.49749Z" fill="#FF6600"/>
<path d="M16 8H10V9H16V8Z" fill="black"/>
<path d="M17 7H16V8H17V7Z" fill="black"/>
<path d="M16 9H15V10H16V9Z" fill="black"/>
<path d="M9.99956 7.49601V6.9997H12.9951H15.9907V7.49601V7.99232H12.9951H9.99956V7.49601Z" fill="#FF2A2A"/>
<path d="M9.99956 9.49896V9.00266H12.4988H14.9981V9.49896V9.99527H12.4988H9.99956V9.49896Z" fill="#FF2A2A"/>
<path d="M15 10H10V11H15V10Z" fill="black"/>
<path d="M9.99956 7.49601V6.9997H12.9951H15.9907V7.49601V7.99232H12.9951H9.99956V7.49601Z" fill="#FF6600"/>
<path d="M9.99956 9.49896V9.00266H12.4988H14.9981V9.49896V9.99527H12.4988H9.99956V9.49896Z" fill="#FF6600"/>
<path d="M10 7H9V8H10V7Z" fill="black"/>
<path d="M9 8H8V9H9V8Z" fill="black"/>
<path d="M10 9H9V10H10V9Z" fill="black"/>
<path d="M2 7H1V8H2V7Z" fill="black"/>
<path d="M1 6H0V7H1V6Z" fill="black"/>
<path d="M1 4H0V6H1V4Z" fill="black"/>
<path d="M5 3H1V4H5V3Z" fill="black"/>
<path d="M7 5H6V7H7V5Z" fill="black"/>
<path d="M2.00546 7.49601V6.9997H1.50916H1.01285V5.50192V4.00414H2.9978H4.98275L4.98746 4.50487L4.99217 5.00561L5.49291 5.01032L5.99365 5.01503V6.00737V6.9997H5.48848H4.98331V7.49601V7.99232H3.49438H2.00546V7.49601Z" fill="#FFFF00"/>
<path d="M5 4H1V6H5V4Z" fill="white"/>
<path d="M6 5H5V6H6V5Z" fill="white"/>
<path d="M5 6H2V7H5V6Z" fill="white"/>
<path d="M6 4H5V5H6V4Z" fill="black"/>
<path d="M6 7H5V8H6V7Z" fill="black"/>
<path d="M6 2H4V3H6V2Z" fill="white"/>
<path d="M8.98921 1.00857H6.01137V2.00118H8.98921V1.00857Z" fill="white"/>
<path d="M6 1H4V2H6V1Z" fill="black"/>
<path d="M5.00104 10.4916V9.99527H4.00842H3.01581V9.49897V9.00266H4.00842H5.00104V8.50635V8.01004H5.50621H6.01138V7.50487V6.99971H6.50768H7.00399V5.99823V4.99675H6.50768H6.01138V4.49158V3.98641H5.50621H5.00104V3.4901V2.9938H4.50473H4.00842V2.49749V2.00118H5.0099H6.01138V1.50487V1.00857H7.5003H8.98922V1.49601V1.98346H8.49291H7.99661V3.49897V5.01448H8.49291H8.98922V5.51078V6.00709H9.49439H9.99956V6.5034V6.99971H9.49439H8.98922V7.49601V7.99232H8.49291H7.99661V8.49749V9.00266H8.49291H8.98922V9.50783V10.013H9.49439H9.99956V10.5004V10.9879H7.5003H5.00104V10.4916Z" fill="#FFFF00"/>
<path d="M5.00104 10.4916V9.99527H4.00842H3.01581V9.49897V9.00266H4.00842H5.00104V8.50635V8.01004H5.50621H6.01138V7.50487V6.99971H6.50768H7.00399V5.99823V4.99675H6.50768H6.01138V4.49158V3.98641H5.50621H5.00104V3.4901V2.9938H4.50473H4.00842V2.49749V2.00118H5.0099H6.01138V1.50487V1.00857H7.5003H8.98922V1.49601V1.98346H8.49291H7.99661V3.49897V5.01448H8.49291H8.98922V5.51078V6.00709H9.49439H9.99956V6.5034V6.99971H9.49439H8.98922V7.49601V7.99232H8.49291H7.99661V8.49749V9.00266H8.49291H8.98922V9.50783V10.013H9.49439H9.99956V10.5004V10.9879H7.5003H5.00104V10.4916Z" fill="#FFFF00"/>
<path d="M4 2H3V3H4V2Z" fill="black"/>
<path d="M3 8H2V10H3V8Z" fill="black"/>
<path d="M5 8H3V9H5V8Z" fill="black"/>
<path d="M5 9H3V10H5V9Z" fill="#FF9955"/>
<path d="M10 10H9V11H10V10Z" fill="#FF9955"/>
<path d="M8 8H5V11H8V8Z" fill="#FF9955"/>
<path d="M8.98922 9.00266H8V11H8.98922V9.00266Z" fill="#FF9955"/>
<path d="M5 10H3V11H5V10Z" fill="black"/>
<path d="M10 11H5V12H10V11Z" fill="black"/>
<path d="M9 0H6V1H9V0Z" fill="black"/>
</svg>
